<svg width="10" height="6" viewBox="0 0 10 6" fill="none" xmlns="http://www.w3.org/2000/svg">
<path d="M9.22768 0.651785C9.2872 0.711309 9.31697 0.779762 9.31697 0.857142C9.31697 0.934524 9.2872 1.00298 9.22768 1.0625L5.06696 5.22321C5.00744 5.28274 4.93899 5.3125 4.86161 5.3125C4.78423 5.3125 4.71577 5.28274 4.65625 5.22321L0.495536 1.0625C0.436012 1.00298 0.40625 0.934524 0.40625 0.857142C0.40625 0.779762 0.436012 0.711309 0.495536 0.651785L0.941964 0.205357C1.00149 0.145833 1.06994 0.116071 1.14732 0.116071C1.2247 0.116071 1.29315 0.145833 1.35268 0.205357L4.86161 3.71429L8.37054 0.205357C8.43006 0.145833 8.49851 0.116071 8.57589 0.116071C8.65327 0.116071 8.72173 0.145833 8.78125 0.205357L9.22768 0.651785Z" fill="#77838F"/>
</svg>
